<?xml version="1.0" encoding="utf-8"?>
<svg viewBox="0 0 128 128" xmlns="http://www.w3.org/2000/svg" xmlns:bx="https://boxy-svg.com" width="128px" height="128px"><defs><linearGradient id="gradPurple" x1="0" y1="0" x2="1" y2="0"><stop offset="0" stop-color="#6d28d9"/><stop offset="1" stop-color="#a78bfa"/></linearGradient><linearGradient id="gradPink" x1="0" y1="0" x2="1" y2="0"><stop offset="0" stop-color="#be185d"/><stop offset="1" stop-color="#f472b6"/></linearGradient><linearGradient id="gradYellow" x1="0" y1="0" x2="1" y2="0"><stop offset="0" stop-color="#ca8a04"/><stop offset="1" stop-color="#fde047"/></linearGradient><linearGradient id="gradBlue" x1="0" y1="0" x2="1" y2="0"><stop offset="0" stop-color="#0284c7"/><stop offset="1" stop-color="#67e8f9"/></linearGradient><clipPath id="clipPurple"><rect x="310" y="140" width="560" height="390" rx="26"/></clipPath><clipPath id="clipPink"><rect x="410" y="355" width="560" height="390" rx="26"/></clipPath><clipPath id="clipYellow"><rect x="505" y="555" width="560" height="390" rx="26"/></clipPath><clipPath id="clipBlue"><rect x="600" y="740" width="570" height="430" rx="26"/></clipPath><filter id="softShadow" x="-50%" y="-50%" width="200%" height="200%"><feDropShadow dx="0" dy="18" stdDeviation="22" flood-color="#000000" flood-opacity="0.55"/></filter><bx:export><bx:file format="svg" href="#background" path="Untitled 2.svg"/><bx:file format="svg" href="#object-0" path="Untitled 3.svg"/><bx:file format="svg"/><bx:file format="png"/></bx:export></defs><rect id="background" width="128" height="128" fill="#0a0a0c"/><g transform="matrix(0.106667, 0, 0, 0.106667, -2.026667, -6.4)" id="object-0"><g id="branch-purple"><path d="M110,272 L110,450 A30,30 0 0 0 140,480 L310,480" fill="none" stroke="#8b5cf6" stroke-width="20" stroke-linecap="round"/><circle cx="110" cy="230" r="42" stroke="#8b5cf6" stroke-width="20" style="fill: rgb(139, 92, 246);"/><g id="window-purple" filter="url(#softShadow)"><g clip-path="url(#clipPurple)"><rect x="310" y="140" width="560" height="390" fill="#1b0f2e"/><rect x="310" y="140" width="560" height="80" fill="url(#gradPurple)"/></g><rect x="310" y="140" width="560" height="390" rx="26" fill="none" stroke="#a78bfa" stroke-width="3" stroke-opacity="0.6"/><circle cx="358" cy="180.0" r="15" fill="#ef4444"/><circle cx="408" cy="180.0" r="15" fill="#f5b942"/><circle cx="458" cy="180.0" r="15" fill="#22c55e"/><rect x="730" y="165.0" width="100" height="30" rx="15" fill="#ffffff" fill-opacity="0.25"/><rect x="352" y="255" width="16" height="6" rx="3" fill="#a78bfa" fill-opacity="0.35"/><rect x="352" y="287" width="16" height="6" rx="3" fill="#a78bfa" fill-opacity="0.35"/><rect x="352" y="319" width="16" height="6" rx="3" fill="#a78bfa" fill-opacity="0.35"/><rect x="352" y="351" width="16" height="6" rx="3" fill="#a78bfa" fill-opacity="0.35"/><rect x="352" y="383" width="16" height="6" rx="3" fill="#a78bfa" fill-opacity="0.35"/><rect x="352" y="415" width="16" height="6" rx="3" fill="#a78bfa" fill-opacity="0.35"/><rect x="352" y="447" width="16" height="6" rx="3" fill="#a78bfa" fill-opacity="0.35"/><rect x="352" y="479" width="16" height="6" rx="3" fill="#a78bfa" fill-opacity="0.35"/><rect x="400" y="265" width="100" height="14" rx="7" fill="#60a5fa"/><rect x="400" y="299" width="120" height="14" rx="7" fill="#a78bfa"/><rect x="540" y="299" width="230" height="14" rx="7" fill="#4b5563"/></g></g><g id="branch-pink"><path d="M110,512 L110,670 A30,30 0 0 0 140,700 L410,700" fill="none" stroke="#ec4899" stroke-width="20" stroke-linecap="round"/><circle cx="110" cy="470" r="42" stroke="#ec4899" stroke-width="20" style="fill: rgb(236, 72, 153);"/><g id="window-pink" filter="url(#softShadow)"><g clip-path="url(#clipPink)"><rect x="410" y="355" width="560" height="390" fill="#2b0a1f"/><rect x="410" y="355" width="560" height="80" fill="url(#gradPink)"/></g><rect x="410" y="355" width="560" height="390" rx="26" fill="none" stroke="#f472b6" stroke-width="3" stroke-opacity="0.6"/><circle cx="458" cy="395.0" r="15" fill="#ef4444"/><circle cx="508" cy="395.0" r="15" fill="#f5b942"/><circle cx="558" cy="395.0" r="15" fill="#22c55e"/><rect x="830" y="380.0" width="100" height="30" rx="15" fill="#ffffff" fill-opacity="0.25"/><rect x="452" y="470" width="16" height="6" rx="3" fill="#f472b6" fill-opacity="0.35"/><rect x="452" y="502" width="16" height="6" rx="3" fill="#f472b6" fill-opacity="0.35"/><rect x="452" y="534" width="16" height="6" rx="3" fill="#f472b6" fill-opacity="0.35"/><rect x="452" y="566" width="16" height="6" rx="3" fill="#f472b6" fill-opacity="0.35"/><rect x="452" y="598" width="16" height="6" rx="3" fill="#f472b6" fill-opacity="0.35"/><rect x="452" y="630" width="16" height="6" rx="3" fill="#f472b6" fill-opacity="0.35"/><rect x="452" y="662" width="16" height="6" rx="3" fill="#f472b6" fill-opacity="0.35"/><rect x="452" y="694" width="16" height="6" rx="3" fill="#f472b6" fill-opacity="0.35"/><rect x="500" y="480" width="90" height="14" rx="7" fill="#f472b6"/><rect x="500" y="514" width="140" height="14" rx="7" fill="#60a5fa"/><rect x="660" y="514" width="230" height="14" rx="7" fill="#4b5563"/></g></g><g id="branch-yellow"><path d="M110,742 L110,870 A30,30 0 0 0 140,900 L505,900" fill="none" stroke="#eab308" stroke-width="20" stroke-linecap="round"/><circle cx="110" cy="700" r="42" stroke="#eab308" stroke-width="20" style="fill: rgb(234, 179, 10);"/><g id="window-yellow" filter="url(#softShadow)"><g clip-path="url(#clipYellow)"><rect x="505" y="555" width="560" height="390" fill="#241d06"/><rect x="505" y="555" width="560" height="80" fill="url(#gradYellow)"/></g><rect x="505" y="555" width="560" height="390" rx="26" fill="none" stroke="#fde047" stroke-width="3" stroke-opacity="0.6"/><circle cx="553" cy="595.0" r="15" fill="#ef4444"/><circle cx="603" cy="595.0" r="15" fill="#f5b942"/><circle cx="653" cy="595.0" r="15" fill="#22c55e"/><rect x="925" y="580.0" width="100" height="30" rx="15" fill="#ffffff" fill-opacity="0.25"/><rect x="547" y="670" width="16" height="6" rx="3" fill="#fde047" fill-opacity="0.35"/><rect x="547" y="702" width="16" height="6" rx="3" fill="#fde047" fill-opacity="0.35"/><rect x="547" y="734" width="16" height="6" rx="3" fill="#fde047" fill-opacity="0.35"/><rect x="547" y="766" width="16" height="6" rx="3" fill="#fde047" fill-opacity="0.35"/><rect x="547" y="798" width="16" height="6" rx="3" fill="#fde047" fill-opacity="0.35"/><rect x="547" y="830" width="16" height="6" rx="3" fill="#fde047" fill-opacity="0.35"/><rect x="547" y="862" width="16" height="6" rx="3" fill="#fde047" fill-opacity="0.35"/><rect x="547" y="894" width="16" height="6" rx="3" fill="#fde047" fill-opacity="0.35"/><rect x="595" y="680" width="110" height="14" rx="7" fill="#fde047"/><rect x="595" y="714" width="90" height="14" rx="7" fill="#a78bfa"/><rect x="705" y="714" width="250" height="14" rx="7" fill="#4b5563"/></g></g><g id="branch-blue" transform="matrix(1, 0, 0, 1, 0, 10)"><path d="M 110 935.731 L 110 1053.73 C 110 1070.3 123.431 1083.73 140 1083.73 L 600 1083.73" fill="none" stroke="#38bdf8" stroke-width="20" stroke-linecap="round"/><circle cx="110" cy="900" r="42" stroke="#38bdf8" stroke-width="20" style="fill: rgb(57, 189, 248);"/><g id="window-blue" filter="url(#softShadow)"><g clip-path="url(#clipBlue)"><rect x="600" y="740" width="570" height="430" fill="#071a2e"/><rect x="600" y="740" width="570" height="80" fill="url(#gradBlue)"/></g><rect x="600" y="740" width="570" height="430" rx="26" fill="none" stroke="#67e8f9" stroke-width="3" stroke-opacity="0.6"/><circle cx="648" cy="780.0" r="15" fill="#ef4444"/><circle cx="698" cy="780.0" r="15" fill="#f5b942"/><circle cx="748" cy="780.0" r="15" fill="#22c55e"/><rect x="1030" y="765.0" width="100" height="30" rx="15" fill="#ffffff" fill-opacity="0.25"/><rect x="642" y="855" width="16" height="6" rx="3" fill="#67e8f9" fill-opacity="0.35"/><rect x="642" y="887" width="16" height="6" rx="3" fill="#67e8f9" fill-opacity="0.35"/><rect x="642" y="919" width="16" height="6" rx="3" fill="#67e8f9" fill-opacity="0.35"/><rect x="642" y="951" width="16" height="6" rx="3" fill="#67e8f9" fill-opacity="0.35"/><rect x="642" y="983" width="16" height="6" rx="3" fill="#67e8f9" fill-opacity="0.35"/><rect x="642" y="1015" width="16" height="6" rx="3" fill="#67e8f9" fill-opacity="0.35"/><rect x="642" y="1047" width="16" height="6" rx="3" fill="#67e8f9" fill-opacity="0.35"/><rect x="642" y="1079" width="16" height="6" rx="3" fill="#67e8f9" fill-opacity="0.35"/><rect x="642" y="1111" width="16" height="6" rx="3" fill="#67e8f9" fill-opacity="0.35"/><rect x="642" y="1143" width="16" height="6" rx="3" fill="#67e8f9" fill-opacity="0.35"/><rect x="690" y="865" width="80" height="14" rx="7" fill="#67e8f9"/><rect x="690" y="899" width="140" height="14" rx="7" fill="#a78bfa"/><rect x="850" y="899" width="30" height="14" rx="7" fill="#4b5563"/><rect x="900" y="899" width="160" height="14" rx="7" fill="#a78bfa"/><rect x="690" y="933" width="90" height="14" rx="7" fill="#67e8f9"/><rect x="800" y="933" width="20" height="14" rx="7" fill="#4b5563"/><rect x="840" y="933" width="60" height="14" rx="7" fill="#4b5563"/><rect x="920" y="933" width="120" height="14" rx="7" fill="#fb923c"/><rect x="690" y="967" width="20" height="14" rx="7" fill="#fb923c"/><rect x="730" y="967" width="140" height="14" rx="7" fill="#4b5563"/><rect x="690" y="1001" width="60" height="14" rx="7" fill="#a78bfa"/><rect x="770" y="1001" width="40" height="14" rx="7" fill="#a78bfa"/><rect x="690" y="1035" width="90" height="14" rx="7" fill="#67e8f9"/><rect x="800" y="1035" width="110" height="14" rx="7" fill="#a78bfa"/><rect x="690" y="1069" width="100" height="14" rx="7" fill="#4b5563"/><rect x="810" y="1069" width="90" height="14" rx="7" fill="#67e8f9"/><rect x="690" y="1103" width="90" height="14" rx="7" fill="#fb923c"/><rect x="800" y="1103" width="110" height="14" rx="7" fill="#a78bfa"/></g></g></g></svg>